<svg xmlns="http://www.w3.org/2000/svg" version="1.1" xmlns:xlink="http://www.w3.org/1999/xlink" xmlns:svgjs="http://svgjs.dev/svgjs" width="1000" height="1000" viewBox="0 0 1000 1000"><g transform="matrix(1,0,0,1,-0.14221556886212738,-0.14221556886229791)"><svg viewBox="0 0 334 334" data-background-color="#000000" preserveAspectRatio="xMidYMid meet" height="1000" width="1000" xmlns="http://www.w3.org/2000/svg" xmlns:xlink="http://www.w3.org/1999/xlink"><g id="tight-bounds" transform="matrix(1,0,0,1,0.04749999999998522,0.04750000000001364)"><svg viewBox="0 0 333.90454557049503 333.90454557049503" height="333.90454557049503" width="333.90454557049503"><g><svg></svg></g><g><svg viewBox="0 0 333.90454557049503 333.90454557049503" height="333.90454557049503" width="333.90454557049503"><g><path d="M0 166.952c0-92.205 74.747-166.952 166.952-166.952 92.205 0 166.952 74.747 166.953 166.952 0 92.205-74.747 166.952-166.953 166.953-92.205 0-166.952-74.747-166.952-166.953zM166.952 316.63c82.665 0 149.677-67.013 149.678-149.678 0-82.665-67.013-149.677-149.678-149.677-82.665 0-149.677 67.013-149.677 149.677 0 82.665 67.013 149.677 149.677 149.678z" data-fill-palette-color="tertiary" fill="#89939e" stroke="transparent"></path><ellipse rx="160.27418187383762" ry="160.27418187383762" cx="166.95227278524752" cy="166.95227278524752" fill="#89939e" stroke="transparent" stroke-width="0" fill-opacity="1" data-fill-palette-color="tertiary"></ellipse></g><g transform="matrix(1,0,0,1,140.45625332262833,71.17305217166896)"><svg viewBox="0 0 52.9920389252384 191.55844122715712" height="191.55844122715712" width="52.9920389252384"><g><svg viewBox="0 0 52.9920389252384 191.55844122715712" height="191.55844122715712" width="52.9920389252384"><g><svg viewBox="0 0 52.9920389252384 191.55844122715712" height="191.55844122715712" width="52.9920389252384"><g><svg viewBox="0 0 52.9920389252384 191.55844122715712" height="191.55844122715712" width="52.9920389252384"><g id="textblocktransform"><svg viewBox="0 0 52.9920389252384 191.55844122715712" height="191.55844122715712" width="52.9920389252384" id="textblock"><g><svg viewBox="0 0 52.9920389252384 191.55844122715712" height="191.55844122715712" width="52.9920389252384"><g transform="matrix(1,0,0,1,0,0)"><svg width="52.9920389252384" viewBox="-1.9300000667572021 -38.15999984741211 14.140000343322754 51.099998474121094" height="191.55844122715712" data-palette-color="#000000"><path d="M1.07 12.94L-1.93 6.32Q-0.24 5.3 0.96 4.17 2.17 3.05 2.95 1.7 3.74 0.34 4.1-1.33 4.47-3 4.47-5.13L4.47-5.13 4.47-38.16 12.21-38.16 12.21-6.52Q12.21-3.98 11.99-1.89 11.77 0.2 11.27 1.94 10.77 3.69 9.92 5.15 9.08 6.62 7.85 7.93 6.62 9.25 4.94 10.47 3.27 11.69 1.07 12.94L1.07 12.94Z" opacity="1" transform="matrix(1,0,0,1,0,0)" fill="#000000" class="wordmark-text-0" data-fill-palette-color="quaternary" id="text-0"></path></svg></g></svg></g></svg></g></svg></g><g></g></svg></g></svg></g></svg></g></svg></g><defs></defs></svg><rect width="333.90454557049503" height="333.90454557049503" fill="none" stroke="none" visibility="hidden"></rect></g></svg></g></svg>